# xmcd
#
# Track frame offsets:
#	150
#	16882
#	40357
#	57015
#	76742
#	97000
#	116397
#	137262
#	154072
#	168050
#	187000
#
# Disc length: 2791
#
# Revision: 1
# Processed by: cddbd v1.5.1PL0 Copyright (c) Steve Scherf et al.
# Submitted via: CDex 1.51
# Normalized: r0:TRMNUM
#
DISCID=7a0ae50b
DTITLE=Joel Feeney - Joel Feeney
DYEAR=1900
DGENRE=Country
TTITLE0=A Little bit OF Your Love (3:43)
TTITLE1=She Ain't Gonna Cry (5:13)
TTITLE2=For You (3:42)
TTITLE3=So far Away (4:23)
TTITLE4=A Wonderful Life (4:30)
TTITLE5=Written in Stone (4:18)
TTITLE6=Leslie's Wedding Day (4:38)
TTITLE7=Mill on The Water (3:44)
TTITLE8=NO Love in Sight (3:05)
TTITLE9=Love Has A Mind OF Its Own (4:13)
TTITLE10=What child OF one (4:57)
EXTD=
EXTT0=
EXTT1=
EXTT2=
EXTT3=
EXTT4=
EXTT5=
EXTT6=
EXTT7=
EXTT8=
EXTT9=
EXTT10=
PLAYORDER=
